<svg width="22" height="22" viewBox="0 0 22 22" fill="none" xmlns="http://www.w3.org/2000/svg">
<path fill-rule="evenodd" clip-rule="evenodd" d="M11.0882 21.443L11.0977 21.443H11.0944L11.0882 21.443ZM11.1627 21.443H11.1595L11.1689 21.443L11.1627 21.443ZM11.056 21.4428L11.0662 21.4428H11.0603L11.056 21.4428ZM11.1968 21.4428H11.191L11.2012 21.4428L11.1968 21.4428ZM11.0249 21.4425L11.0317 21.4426L11.0262 21.4425H11.0249ZM11.2309 21.4425L11.2255 21.4426L11.2323 21.4425H11.2309ZM11.265 21.4422L11.2626 21.4422L11.2718 21.4421L11.265 21.4422ZM10.9853 21.4421L10.9945 21.4422L10.9921 21.4422L10.9853 21.4421ZM11.299 21.4417L11.2934 21.4418L11.3048 21.4416L11.299 21.4417ZM10.9523 21.4416L10.9637 21.4418L10.9581 21.4417L10.9523 21.4416ZM11.333 21.4411L11.3255 21.4412L11.336 21.441L11.333 21.4411ZM10.9212 21.441L10.9316 21.4412L10.9241 21.4411L10.9212 21.441ZM10.8825 21.4402L10.8918 21.4404L10.8901 21.4404L10.8825 21.4402ZM11.367 21.4404L11.3653 21.4404L11.3746 21.4402L11.367 21.4404ZM10.8486 21.4394L10.8613 21.4397L10.8562 21.4396L10.8486 21.4394ZM11.4009 21.4396L11.3958 21.4397L11.4085 21.4394L11.4009 21.4396ZM11.4349 21.4387L11.4266 21.4389L11.4396 21.4385L11.4349 21.4387ZM10.8175 21.4385L10.8305 21.4389L10.8222 21.4387L10.8175 21.4385ZM10.7878 21.4376L10.7971 21.4379L10.7883 21.4376L10.7803 21.4374L10.7878 21.4376ZM11.4688 21.4376L11.4601 21.4379L11.4693 21.4376L11.4768 21.4374L11.4688 21.4376ZM11.5027 21.4365L11.498 21.4367L11.5123 21.4362L11.5027 21.4365ZM10.7448 21.4362L10.7591 21.4367L10.7545 21.4365L10.7448 21.4362ZM10.714 21.435L10.7289 21.4356L10.7206 21.4353L10.714 21.435ZM11.5365 21.4353L11.5282 21.4356L11.5432 21.435L11.5365 21.4353ZM10.6836 21.4338L10.6982 21.4344L10.6868 21.434L10.6836 21.4338ZM11.5703 21.434L11.5589 21.4344L11.5735 21.4338L11.5703 21.434ZM10.6411 21.4319L10.6568 21.4326L10.653 21.4325L10.6411 21.4319ZM11.6041 21.4325L11.6003 21.4326L11.616 21.4319L11.6041 21.4325ZM10.6107 21.4305L10.6269 21.4313L10.6192 21.431L10.6107 21.4305ZM11.6379 21.431L11.6302 21.4313L11.6465 21.4305L11.6379 21.431ZM10.5806 21.429L10.597 21.4298L10.5855 21.4293L10.5806 21.429ZM11.6716 21.4293L11.6601 21.4298L11.6765 21.429L11.6716 21.4293ZM11.7054 21.4275L11.6904 21.4283L11.7037 21.4276L11.7193 21.4267L11.7054 21.4275ZM10.5534 21.4276L10.5667 21.4283L10.5518 21.4275L10.5379 21.4267L10.5534 21.4276ZM11.739 21.4256L11.7324 21.426L11.7492 21.4251L11.739 21.4256ZM10.5079 21.4251L10.5247 21.426L10.5181 21.4256L10.5079 21.4251ZM10.4782 21.4233L10.4949 21.4243L10.4844 21.4237L10.4782 21.4233ZM11.7727 21.4237L11.7623 21.4243L11.779 21.4233L11.7727 21.4237ZM10.4497 21.4215L10.4648 21.4225L10.4508 21.4216L10.4367 21.4207L10.4497 21.4215ZM11.8064 21.4216L11.7923 21.4225L11.8074 21.4215L11.8205 21.4207L11.8064 21.4216ZM11.8399 21.4194L11.8349 21.4197L11.8509 21.4187L11.8399 21.4194ZM10.4063 21.4187L10.4222 21.4197L10.4172 21.4194L10.4063 21.4187ZM10.3765 21.4166L10.3922 21.4177L10.3836 21.4171L10.3765 21.4166ZM11.8735 21.4171L11.8649 21.4177L11.8806 21.4166L11.8735 21.4171ZM10.3469 21.4145L10.3613 21.4155L10.3501 21.4147L10.3469 21.4145ZM11.907 21.4147L11.8959 21.4155L11.9103 21.4145L11.907 21.4147ZM10.307 21.4115L10.3196 21.4124L10.3165 21.4122L10.307 21.4115ZM11.9406 21.4122L11.9375 21.4124L11.9502 21.4115L11.9406 21.4122ZM11.974 21.4096L11.968 21.4101L11.9808 21.409L11.974 21.4096ZM10.2763 21.409L10.2891 21.4101L10.2831 21.4096L10.2763 21.409ZM10.2464 21.4066L10.2573 21.4075L10.2496 21.4069L10.2464 21.4066ZM12.0075 21.4069L11.9999 21.4075L12.0108 21.4066L12.0075 21.4069ZM10.2135 21.4039L10.2167 21.4041L10.2162 21.4041L10.2135 21.4039ZM12.0409 21.4041L12.0404 21.4041L12.0437 21.4039L12.0409 21.4041ZM12.0744 21.4012L12.0714 21.4014L12.0789 21.4008L12.0744 21.4012ZM10.1783 21.4008L10.1857 21.4014L10.1828 21.4012L10.1783 21.4008ZM10.1473 21.398L10.1529 21.3985L10.1494 21.3982L10.1473 21.398ZM12.1077 21.3982L12.1042 21.3985L12.1098 21.398L12.1077 21.3982ZM9.47853 21.3146C4.43278 20.5215 0.568359 16.1499 0.568359 10.8828C0.568359 5.05451 5.30024 0.322632 11.1286 0.322632C16.9569 0.322632 21.6888 5.05451 21.6888 10.8828C21.6888 16.1499 17.8244 20.5215 12.7786 21.3146V13.9354H15.2392L15.7074 10.8828H12.7786V8.90193C12.7786 8.06681 13.1877 7.25277 14.4995 7.25277H15.8312V4.65397C15.8312 4.65397 14.6227 4.44771 13.4673 4.44771C11.0551 4.44771 9.47853 5.90964 9.47853 8.55629V10.8828H6.79723V13.9354H9.47853V21.3146Z" fill="#0B4856"/>
</svg>
