<svg width="24" height="24" viewBox="0 0 24 24" fill="none" xmlns="http://www.w3.org/2000/svg">
<path fill-rule="evenodd" clip-rule="evenodd" d="M12.4446 0.845459C6.10306 0.845459 0.962402 5.88026 0.962402 12.0906C0.962402 18.3014 6.10306 23.3362 12.4446 23.3362C18.7858 23.3362 23.9269 18.3014 23.9269 12.0906C23.9269 5.88026 18.7858 0.845459 12.4446 0.845459ZM12.5788 18.6679C8.87777 18.6679 5.88008 15.7246 5.88008 12.0908C5.88008 8.45698 8.87777 5.5137 12.5788 5.5137C14.3875 5.5137 15.8986 6.16726 17.0586 7.22786L15.17 9.08183V9.07764C14.4668 8.41989 13.5751 8.08291 12.5788 8.08291C10.3683 8.08291 8.57223 9.9162 8.57223 12.0868C8.57223 14.2569 10.3683 16.0947 12.5788 16.0947C14.5842 16.0947 15.9489 14.9683 16.2297 13.4227H12.5788V10.8576H18.8795C18.9633 11.2973 19.0091 11.7578 19.0091 12.2387C19.0091 15.9959 16.4473 18.6679 12.5788 18.6679Z" fill="#0B4856"/>
</svg>
