<svg width="24" height="24" viewBox="0 0 24 24" fill="none" xmlns="http://www.w3.org/2000/svg">
<path d="M12 0C5.373 0 0 5.373 0 12C0 17.084 3.163 21.426 7.627 23.174C7.522 22.225 7.427 20.768 7.669 19.732C7.887 18.796 9.076 13.767 9.076 13.767C9.076 13.767 8.717 13.048 8.717 11.986C8.717 10.317 9.684 9.072 10.888 9.072C11.912 9.072 12.406 9.841 12.406 10.762C12.406 11.792 11.751 13.331 11.412 14.757C11.129 15.952 12.011 16.926 13.189 16.926C15.322 16.926 16.961 14.677 16.961 11.431C16.961 8.558 14.897 6.549 11.949 6.549C8.535 6.549 6.531 9.11 6.531 11.757C6.531 12.788 6.928 13.894 7.424 14.496C7.522 14.615 7.536 14.719 7.507 14.84C7.416 15.219 7.214 16.034 7.174 16.201C7.122 16.421 7 16.467 6.773 16.361C5.274 15.663 4.337 13.472 4.337 11.712C4.337 7.927 7.087 4.45 12.266 4.45C16.429 4.45 19.664 7.416 19.664 11.381C19.664 15.517 17.056 18.845 13.437 18.845C12.221 18.845 11.078 18.213 10.687 17.467C10.687 17.467 10.085 19.758 9.939 20.32C9.668 21.362 8.937 22.669 8.447 23.466C9.57 23.812 10.763 24 12 24C18.627 24 24 18.627 24 12C24 5.373 18.627 0 12 0Z" fill="white"/>
</svg>
