<svg width="22" height="22" viewBox="0 0 22 22" fill="none" xmlns="http://www.w3.org/2000/svg">
<path fill-rule="evenodd" clip-rule="evenodd" d="M10.8441 0.782013C16.5457 0.782013 21.1747 5.41103 21.1747 11.1126C21.1747 16.8143 16.5457 21.4433 10.8441 21.4433C5.14244 21.4433 0.513428 16.8143 0.513428 11.1126C0.513428 5.41103 5.14244 0.782013 10.8441 0.782013ZM9.02446 16.6072C13.5959 16.6072 16.0955 12.8191 16.0955 9.53622C16.0955 9.42799 16.0955 9.31976 16.0903 9.21665C16.5747 8.86622 16.9974 8.42814 17.3323 7.92823C16.8891 8.12407 16.4098 8.25808 15.9047 8.31991C16.4201 8.01067 16.8118 7.52622 16.9974 6.94387C16.518 7.22732 15.9872 7.43345 15.4203 7.54684C14.9668 7.06239 14.3225 6.76349 13.6062 6.76349C12.2353 6.76349 11.1221 7.8767 11.1221 9.24761C11.1221 9.44344 11.1427 9.63412 11.189 9.8145C9.1224 9.71143 7.29279 8.72191 6.06623 7.21699C5.85489 7.58292 5.73121 8.01067 5.73121 8.46421C5.73121 9.32488 6.16929 10.0877 6.83929 10.5309C6.43212 10.5206 6.05073 10.4072 5.71575 10.2217V10.2526C5.71575 11.4586 6.57126 12.4584 7.71025 12.6903C7.50412 12.747 7.2825 12.7779 7.05575 12.7779C6.89594 12.7779 6.74135 12.7625 6.58675 12.7315C6.90111 13.7211 7.81848 14.4375 8.90594 14.458C8.05556 15.1229 6.98359 15.5198 5.81881 15.5198C5.61781 15.5198 5.42197 15.5094 5.22613 15.4837C6.31359 16.1949 7.62264 16.6072 9.02446 16.6072Z" fill="#0B4856"/>
</svg>
